<?xml version="1.0" standalone="no"?><!DOCTYPE svg PUBLIC "-//W3C//DTD SVG 1.1//EN" "http://www.w3.org/Graphics/SVG/1.1/DTD/svg11.dtd"><svg t="1668673264853" class="icon" viewBox="0 0 1024 1024" version="1.1" xmlns="http://www.w3.org/2000/svg" p-id="2498" xmlns:xlink="http://www.w3.org/1999/xlink" width="200" height="200"><path d="M721.1 465.7m-303.1 0a303.1 303.1 0 1 0 606.2 0 303.1 303.1 0 1 0-606.2 0Z" fill="#1A1A1A" p-id="2499"></path><path d="M727.034595 521.236034a50.5 50.5 0 1 0 56.014353-84.04399 50.5 50.5 0 1 0-56.014353 84.04399Z" fill="#FFFFFF" p-id="2500"></path><path d="M774 438.9c23.2 15.5 29.5 46.8 14 70-6.8 10.2-16.8 16.9-27.7 20.2 14.4-1.5 28.1-9 36.7-22 15.5-23.2 9.2-54.6-14-70-13-8.7-28.5-10.3-42.3-6.2 11.3-1.2 23.1 1.2 33.3 8z" fill="#DFDFDD" p-id="2501"></path><path d="M784.2 513l-203.1 40.6c-3.6 0.7-7.1-1.6-7.8-5.2l-12.8-64.2c-0.7-3.6 1.6-7.1 5.2-7.8l203.1-40.6c3.6-0.7 7.1 1.6 7.8 5.2l12.8 64.2c0.8 3.6-1.6 7.1-5.2 7.8z" fill="#DFDFDD" p-id="2502"></path><path d="M721.1 162.6c-5.8 0-11.6 0.2-17.3 0.5 159.3 9 285.8 141 285.8 302.6S863.1 759.3 703.8 768.3c5.7 0.3 11.5 0.5 17.3 0.5 167.4 0 303.1-135.7 303.1-303.1S888.5 162.6 721.1 162.6z" fill="#404040" p-id="2503"></path><path d="M358.3 571.3m-353.6 0a353.6 353.6 0 1 0 707.2 0 353.6 353.6 0 1 0-707.2 0Z" fill="#404040" p-id="2504"></path><path d="M358.3 217.7c-63.9 0-123.7 17-175.4 46.6 42.6-18.2 89.4-28.3 138.7-28.3 195.3 0 353.6 158.3 353.6 353.6 0 131.4-71.8 246-178.2 307 126.3-53.9 214.9-179.3 214.9-325.3 0-195.3-158.3-353.6-353.6-353.6z" fill="#2D2D2D" p-id="2505"></path><path d="M345 571.3m-280.1 0a280.1 280.1 0 1 0 560.2 0 280.1 280.1 0 1 0-560.2 0Z" fill="#EFEFEF" p-id="2506"></path><path d="M100.5 571.3c0-148.7 115.9-270.3 262.3-279.5-5.9-0.4-11.8-0.6-17.8-0.6-154.7 0-280.1 125.4-280.1 280.1S190.3 851.4 345 851.4c6 0 11.9-0.2 17.8-0.6-146.4-9.1-262.3-130.8-262.3-279.5z" fill="#151615" p-id="2507"></path></svg>